# xmcd
#
# Track frame offsets:
#	150
#	13026
#	28536
#	41915
#	57808
#	74871
#	89093
#	101340
#	112768
#	126418
#	140602
#	157337
#	172631
#	189291
#	203376
#	218141
#	233588
#	249161
#	264831
#	278056
#
# Disc length: 3889 seconds
#
# Revision: 1
# Processed by: cddbd v1.5.2PL0 Copyright (c) Steve Scherf et al.
# Submitted via: audiograbber 1.83.01
#
DISCID=110f2f14
DTITLE=LÁZARO DO PIAUÍ - AS 20 PIAUIENSES DO BARULHO- ESP-2-VOL. 10
DYEAR=1900
DGENRE=FORRÓ
TTITLE0=FUNGANDO NO FORRÓ
TTITLE1=FORRÓ DO REMELEXO
TTITLE2=TERESINA
TTITLE3=MORENA
TTITLE4=SAUDADE DELA
TTITLE5=PASSA LÁ EM CASA
TTITLE6=DEPOIS DE VOCÊ
TTITLE7=NÃO EXISTE EX
TTITLE8=DEIXA O AMOR ENTRAR
TTITLE9=DANÇANDO LAMBADA
TTITLE10=ARRIADO POR VOCÊ
TTITLE11=MORRENDO DE SAUDADE(FLÁVIO JOSÉ)
TTITLE12=MAL COMUM
TTITLE13=AUSÊNCIA
TTITLE14=MISTURANDO OS TRAVESSEIROS
TTITLE15=FORRÓ DO BOM
TTITLE16=HÁ QUANTO TEMPO
TTITLE17=BONZIM DE DANÇAR
TTITLE18=ENGANO TOTAL
TTITLE19=PRA VOCÊ ROSA
EXTD=
EXTT0=
EXTT1=
EXTT2=
EXTT3=
EXTT4=
EXTT5=
EXTT6=
EXTT7=
EXTT8=
EXTT9=
EXTT10=
EXTT11=
EXTT12=
EXTT13=
EXTT14=
EXTT15=
EXTT16=
EXTT17=
EXTT18=
EXTT19=
PLAYORDER=
